<svg width="33" height="28" viewBox="0 0 33 28" fill="none" xmlns="http://www.w3.org/2000/svg">
<path d="M29.643 6.10122H29.6431C29.6431 9.48361 29.6431 12.8323 29.6431 16.235C24.67 16.2545 19.7803 16.2583 14.8063 16.2516C14.8063 14.5912 14.8063 13.045 14.8063 11.4629C14.0736 11.4629 13.4254 11.4629 12.6447 11.4629C12.6447 13.1292 12.5788 14.7104 12.6672 16.2843C12.7293 17.3914 13.8804 18.2255 15.1219 18.2279C19.888 18.2373 24.6541 18.2332 29.4202 18.2511C30.8372 18.2566 31.922 17.3489 31.9152 15.9771C31.8992 12.6851 31.9108 9.39305 31.9113 6.10103H31.9152V4.38477H29.643L29.643 6.10122Z" fill="white"/>
<path d="M32.2253 1.82233C31.988 1.75363 31.7178 1.76422 31.4623 1.76385C29.0805 1.75998 26.6987 1.76152 24.317 1.76152C24.1405 1.76152 23.9651 1.76152 23.7982 1.76152C23.7247 1.05597 23.0681 0.503906 22.2683 0.503906C21.4685 0.503906 20.8116 1.05601 20.7383 1.76152C20.5535 1.76152 20.3596 1.76152 20.1648 1.76152C17.8692 1.76152 15.5735 1.76144 13.2776 1.76167C13.0767 1.7617 12.874 1.74845 12.6754 1.76817C12.0881 1.82623 11.5617 2.32027 11.5717 2.78835C11.5816 3.25324 12.1212 3.72797 12.7084 3.7806C12.8506 3.79337 12.9953 3.78443 13.1387 3.78443C19.2511 3.78454 25.3635 3.78454 31.4759 3.78447C31.6195 3.78447 31.7638 3.79337 31.9062 3.78139C32.4616 3.73474 32.9477 3.31496 32.9971 2.84714C33.0365 2.46897 32.6778 1.95341 32.2253 1.82233Z" fill="white"/>
<path d="M14.8782 6.64213V4.38477H12.606V6.64213H12.6923C13.4167 6.64213 14.0825 6.64213 14.7918 6.64213H14.8782Z" fill="white"/>
<path d="M6.19697 6.68905C8.24064 6.68905 9.89736 5.19166 9.89736 3.34453C9.89736 1.4974 8.24064 0 6.19697 0C4.1533 0 2.49658 1.4974 2.49658 3.34453C2.49658 5.19166 4.1533 6.68905 6.19697 6.68905Z" fill="white"/>
<path d="M18.2642 7.17773H8.78838L8.3258 9.77826L7.90587 12.1395H7.35652L7.00266 8.50592L7.41707 7.17788H4.97645L5.39086 8.50592L5.037 12.1395H4.48765L4.15573 10.2732L3.73842 7.92692L3.60514 7.17777H2.07787H2.07267V7.17788C0.927435 7.1804 0 8.02015 0 9.05581V17.0559C0 18.093 0.930303 18.9339 2.07787 18.9339V25.9784C2.07787 27.0156 3.00817 27.8564 4.15573 27.8564C5.1704 27.8564 6.01464 27.1989 6.1967 26.3297C6.3788 27.199 7.22312 27.8564 8.23779 27.8564C9.38535 27.8564 10.3157 27.0156 10.3157 25.9784V17.9955V14.6596V10.9339H18.2643C19.4118 10.9339 20.3422 10.0931 20.3422 9.05589C20.3421 8.01857 19.4118 7.17773 18.2642 7.17773Z" fill="white"/>
<path d="M28.4064 26.0599L28.408 26.0585L23.4367 21.5653V18.9727H21.1072V21.3789V21.5653L16.1359 26.0585L16.1375 26.0599C15.683 26.4707 15.683 27.1365 16.1375 27.5473C16.592 27.9581 17.3286 27.958 17.7831 27.5473L21.1072 24.5428V26.9476C21.1072 27.5284 21.6281 27.9993 22.2708 27.9993C22.9135 27.9993 23.4344 27.5284 23.4344 26.9476H23.4367V24.5428L26.7608 27.5473C27.2153 27.958 27.9519 27.9581 28.4064 27.5473C28.8608 27.1365 28.8608 26.4707 28.4064 26.0599Z" fill="white"/>
</svg>