<svg width="18" height="18" viewBox="0 0 18 18" fill="none" xmlns="http://www.w3.org/2000/svg">
                    <path d="M11 4C11 2.89543 11.8954 2 13 2H16C17.1046 2 18 2.89543 18 4V7C18 8.10457 17.1046 9 16 9H13C11.8954 9 11 8.10457 11 7V4Z" fill="white"/>
                    <path d="M11 13C11 11.8954 11.8954 11 13 11H16C17.1046 11 18 11.8954 18 13V16C18 17.1046 17.1046 18 16 18H13C11.8954 18 11 17.1046 11 16V13Z" fill="white"/>
                    <path d="M2 13C2 11.8954 2.89543 11 4 11H7C8.10457 11 9 11.8954 9 13V16C9 17.1046 8.10457 18 7 18H4C2.89543 18 2 17.1046 2 16V13Z" fill="white"/>
                    <path d="M0 2C0 0.89543 0.895431 0 2 0H7C8.10457 0 9 0.895431 9 2V7C9 8.10457 8.10457 9 7 9H2C0.89543 9 0 8.10457 0 7V2Z" fill="white"/>
                </svg>