<svg width="33" height="34" viewBox="0 0 33 34" fill="none" xmlns="http://www.w3.org/2000/svg">
<path d="M17.875 4.625C14.5929 4.625 11.4453 5.92879 9.12455 8.24955C6.80379 10.5703 5.5 13.7179 5.5 17H1.375L6.72375 22.3488L6.82 22.5413L12.375 17H8.25C8.25 11.6788 12.5538 7.375 17.875 7.375C23.1962 7.375 27.5 11.6788 27.5 17C27.5 22.3212 23.1962 26.625 17.875 26.625C15.2213 26.625 12.815 25.5388 11.0825 23.7925L9.13 25.745C10.2759 26.8973 11.6387 27.8113 13.1396 28.4343C14.6405 29.0573 16.2499 29.377 17.875 29.375C21.1571 29.375 24.3047 28.0712 26.6254 25.7504C28.9462 23.4297 30.25 20.2821 30.25 17C30.25 13.7179 28.9462 10.5703 26.6254 8.24955C24.3047 5.92879 21.1571 4.625 17.875 4.625ZM16.5 11.5V18.375L22.385 21.8675L23.375 20.2037L18.5625 17.3438V11.5H16.5Z" fill="#403737"/>
</svg>
