<svg width="25" height="23" viewBox="0 0 25 23" fill="none" xmlns="http://www.w3.org/2000/svg">
<path d="M10.4417 1.20403C11.3291 -0.401343 13.6773 -0.401343 14.5631 1.20403L24.7183 19.6068C24.911 19.9568 25.0079 20.35 24.9995 20.7477C24.9911 21.1455 24.8777 21.5344 24.6704 21.8763C24.463 22.2182 24.1689 22.5014 23.8166 22.6984C23.4644 22.8954 23.0661 22.9993 22.6607 23H2.34409C1.93798 23.0001 1.53882 22.8966 1.18573 22.6997C0.832639 22.5028 0.537749 22.2192 0.329967 21.8768C0.122185 21.5343 0.0086435 21.1448 0.000474295 20.7463C-0.00769491 20.3478 0.0897883 19.9541 0.283367 19.6037L10.4417 1.20403ZM13.2836 8.43358C13.2836 8.23025 13.2013 8.03525 13.0548 7.89147C12.9083 7.74769 12.7096 7.66692 12.5024 7.66692C12.2952 7.66692 12.0965 7.74769 11.95 7.89147C11.8035 8.03525 11.7212 8.23025 11.7212 8.43358V14.5668C11.7212 14.7701 11.8035 14.9651 11.95 15.1089C12.0965 15.2527 12.2952 15.3335 12.5024 15.3335C12.7096 15.3335 12.9083 15.2527 13.0548 15.1089C13.2013 14.9651 13.2836 14.7701 13.2836 14.5668V8.43358ZM13.6742 18.0168C13.6742 17.7118 13.5507 17.4193 13.331 17.2036C13.1112 16.9879 12.8132 16.8668 12.5024 16.8668C12.1916 16.8668 11.8936 16.9879 11.6739 17.2036C11.4541 17.4193 11.3307 17.7118 11.3307 18.0168C11.3307 18.3217 11.4541 18.6142 11.6739 18.8299C11.8936 19.0456 12.1916 19.1667 12.5024 19.1667C12.8132 19.1667 13.1112 19.0456 13.331 18.8299C13.5507 18.6142 13.6742 18.3217 13.6742 18.0168Z" fill="#403737"/>
</svg>
