<svg width="20" height="29" viewBox="0 0 20 29" fill="none" xmlns="http://www.w3.org/2000/svg">
<path d="M2.5874 13.1151C2.5874 14.4317 3.34055 15.5684 4.42439 15.8965C5.23672 18.2963 7.38236 19.9053 9.77795 19.9053C12.1735 19.9053 14.3192 18.2963 15.1314 15.8965C16.2154 15.5684 16.9685 14.4321 16.9685 13.1151C16.9685 12.2263 16.6101 11.3789 16.0072 10.8354L16.0956 10.3301C16.0956 10.1419 16.0834 9.95807 16.0695 9.77382L16.0582 9.62695L15.9404 9.70478C14.2973 10.7892 11.6352 11.2743 9.72606 11.2743C7.87114 11.2743 5.26067 10.809 3.6103 9.76946L3.49006 9.73604L3.48005 9.8807C3.46983 10.0298 3.45961 10.1784 3.46105 10.3469L3.54792 10.8367C2.94551 11.3803 2.5874 12.2272 2.5874 13.1151Z" fill="#0D366B"/>
<path d="M15.3305 21.5837C14.8177 21.2456 14.3334 20.9263 13.9412 20.5965L13.8914 20.5547L13.8396 20.5938C13.473 20.8722 12.1788 22.3027 11.1239 23.4922L10.5413 22.2873L10.8445 22.0565V20.8753H8.71178V22.0565L9.01501 22.2873L8.43224 23.4927C7.37703 22.3027 6.0821 20.8722 5.71591 20.5938L5.66412 20.5547L5.61424 20.5965C5.22208 20.9263 4.73767 21.2456 4.22494 21.5837C2.62662 22.6378 0.815186 23.8322 0.815186 25.9645C0.815186 27.2245 3.59576 28.9993 9.77779 28.9993C15.9598 28.9993 18.7404 27.2245 18.7404 25.9645C18.7403 23.8322 16.9287 22.6378 15.3305 21.5837Z" fill="#0D366B"/>
<path d="M3.38245 7.46659C3.38245 8.52289 6.36938 9.86283 9.72634 9.86283C13.0833 9.86283 16.0702 8.52294 16.0702 7.46659V6.01059L18.3857 5.00794V8.17766C18.116 8.22252 17.9086 8.4714 17.9086 8.76956C17.9086 9.02461 18.0665 9.24715 18.2941 9.32758L17.8335 12.5624H20L19.5395 9.32758C19.7668 9.24709 19.9245 9.02455 19.9245 8.76956C19.9245 8.46964 19.7159 8.22031 19.4447 8.17675L19.4335 4.37067C19.4525 4.3355 19.4525 4.29897 19.4525 4.27965C19.4525 4.26028 19.4525 4.22426 19.4446 4.22426H19.4445C19.4305 4.08571 19.3374 3.96303 19.2018 3.90412L18.5883 3.63678L10.6148 0.183402C10.3386 0.0633242 10.0314 0 9.72634 0C9.42125 0 9.11413 0.0633242 8.838 0.183402L0.250853 3.90458C0.0984678 3.97096 0 4.11828 0 4.27965C0 4.44062 0.0983612 4.58795 0.251013 4.65518L3.38245 6.01048V7.46659Z" fill="#0D366B"/>
</svg>
