<svg width="25" height="25" viewBox="0 0 25 25" fill="none" xmlns="http://www.w3.org/2000/svg">
<path d="M0.779158 22.505L12.3792 10.905L10.6875 9.18919L9.81749 10.0471C9.7057 10.1591 9.57292 10.248 9.42675 10.3086C9.28057 10.3693 9.12387 10.4005 8.96562 10.4005C8.80736 10.4005 8.65066 10.3693 8.50449 10.3086C8.35831 10.248 8.22553 10.1591 8.11374 10.0471L7.25582 9.18919C7.14381 9.07741 7.05494 8.94463 6.9943 8.79845C6.93367 8.65227 6.90245 8.49557 6.90245 8.33732C6.90245 8.17907 6.93367 8.02237 6.9943 7.87619C7.05494 7.73001 7.14381 7.59723 7.25582 7.48544L14.095 0.646278C14.2068 0.534261 14.3396 0.445391 14.4857 0.384755C14.6319 0.324119 14.7886 0.292908 14.9469 0.292908C15.1051 0.292908 15.2618 0.324119 15.408 0.384755C15.5542 0.445391 15.687 0.534261 15.7987 0.646278L16.6567 1.50419C17.1279 1.97544 17.1279 2.73669 16.6567 3.20794L15.7987 4.04169L17.5146 5.76961C17.6264 5.65759 17.7591 5.56872 17.9053 5.50809C18.0515 5.44745 18.2082 5.41624 18.3664 5.41624C18.5247 5.41624 18.6814 5.44745 18.8276 5.50809C18.9738 5.56872 19.1065 5.65759 19.2183 5.76961C19.6896 6.24086 19.6896 7.01419 19.2183 7.48544L20.9221 9.18919L21.78 8.33128C22.2512 7.86003 23.0246 7.86003 23.4958 8.33128L24.3417 9.18919C24.8129 9.66044 24.8129 10.4338 24.3417 10.905L17.5146 17.7321C17.0433 18.2034 16.27 18.2034 15.7987 17.7321L14.9529 16.8863C14.8382 16.7748 14.747 16.6414 14.6847 16.4941C14.6224 16.3467 14.5903 16.1883 14.5903 16.0284C14.5903 15.8684 14.6224 15.71 14.6847 15.5627C14.747 15.4153 14.8382 15.2819 14.9529 15.1704L15.7987 14.3125L14.095 12.6088L2.48291 24.2209C2.37112 24.3329 2.23834 24.4217 2.09216 24.4824C1.94599 24.543 1.78929 24.5742 1.63103 24.5742C1.47278 24.5742 1.31608 24.543 1.1699 24.4824C1.02373 24.4217 0.890945 24.3329 0.779158 24.2209C0.307908 23.7496 0.307908 22.9763 0.779158 22.505ZM22.1667 20.9584C22.8076 20.9584 23.4223 21.213 23.8755 21.6662C24.3287 22.1194 24.5833 22.7341 24.5833 23.375V24.5834H12.5V23.375C12.5 22.7341 12.7546 22.1194 13.2078 21.6662C13.661 21.213 14.2757 20.9584 14.9167 20.9584H22.1667Z" fill="#403737"/>
</svg>
